<?xml version="1.0" encoding="utf-8"?>

<!DOCTYPE svg PUBLIC "-//W3C//DTD SVG 1.1//EN" "http://www.w3.org/Graphics/SVG/1.1/DTD/svg11.dtd">
<!-- Uploaded to: SVG Repo, www.svgrepo.com, Generator: SVG Repo Mixer Tools -->
<svg height="16" width="16" version="1.1" id="_x32_" xmlns="http://www.w3.org/2000/svg" xmlns:xlink="http://www.w3.org/1999/xlink" 
	 viewBox="0 0 512 512"  xml:space="preserve">
<style type="text/css">
	.st0{fill:#EAF2D4;}
</style>
<g>
	<path class="st0" d="M512,361.947c0-120.882-23.587-156.974-88.99-156.974H304.998c-5.518-26.281-12.648-50.691-21.62-72.694
		c-7.196-17.686-15.59-33.813-25.281-48.092c-14.536-21.42-32.046-38.698-52.85-50.595c-20.772-11.905-44.79-18.35-71.911-18.334
		c-24.099-0.008-43.911,4.837-60.014,12.457C61.234,33.431,51.271,40.684,43.116,48.51c-12.248,11.746-20.42,24.762-25.76,35.94
		c-2.687,5.597-4.67,10.746-6.109,15.063c-0.608,1.847-1.12,3.535-1.551,5.054l-3.086,0.224c-2.655,0.192-4.989,1.854-6.045,4.326
		c-1.04,2.454-0.624,5.3,1.088,7.355l27.184,32.702c0.368,0.44,0.784,0.823,1.247,1.151c0.304,3.95,0.88,8.011,1.728,12.217
		c1.758,8.579,17.638,78.059,17.638,78.059h54.129c0,0,2.511-54.129,2.975-58.294c0.832-7.555,6.124-12.8,10.905,0l68.841,314.436
		h65.466l3.359-110.457H381.05l1.664,110.457h67.161l10.075-150.746h0.767v-32.741h10.905v48.692H512z M41.501,99.394l-16.247,1.183
		c0.832-2.535,1.919-5.501,3.358-8.723c2.334-5.293,5.548-11.289,9.882-17.27c0.032-0.064,0.08-0.112,0.096-0.144l12.105,14.568
		C47.258,92.11,44.156,95.572,41.501,99.394z M72.891,152.083c-6.013,0-10.906-4.885-10.906-10.914
		c0-6.02,4.893-10.906,10.906-10.906c6.028,0,10.921,4.886,10.921,10.906C83.812,147.198,78.92,152.083,72.891,152.083z
		 M60.834,80.308L47.865,64.662c6.061-7.22,13.88-14.16,23.954-19.645c0.72-0.392,1.471-0.783,2.223-1.176l10.922,24.562
		C76.202,71.034,67.95,75,60.834,80.308z M102.858,63.182c-1.519,0.256-3.038,0.56-4.541,0.896L86.963,38.533
		c9.803-4.118,21.46-6.892,35.42-7.484l0.911,31.198C116.754,61.687,109.942,61.983,102.858,63.182z M165.606,73.84
		c-8.123-4.877-16.774-8.211-25.985-9.786l-0.944-32.126c14.727,0.072,28,2.615,40.009,7.356L165.606,73.84z M179.102,81.068
		l13.448-35.539c0.72,0.336,1.455,0.671,2.159,1.023c10.602,5.269,20.165,12.36,28.815,21.132c0.528,0.528,1.04,1.072,1.552,1.607
		l-25.218,31.174C193.398,92.774,186.49,86.257,179.102,81.068z M209.853,112.019l25.458-31.47
		c8.651,10.026,16.294,21.876,22.93,35.292l-33.149,19.813C220.342,126.986,215.274,119.079,209.853,112.019z M231.92,149.149
		l32.94-19.676c0.464,1.024,0.928,2.055,1.392,3.094c4.301,9.707,8.122,20.133,11.513,31.19l-35.499,8.092
		C239.02,163.844,235.582,156.265,231.92,149.149z M253.044,202.039c-1.935-5.861-3.966-11.546-6.076-17.054l34.956-7.964
		c2.303,8.036,4.366,16.391,6.221,25.018H253.044z"/>
</g>
</svg>