<?xml version="1.0" encoding="iso-8859-1"?>
<!-- Uploaded to: SVG Repo, www.svgrepo.com, Generator: SVG Repo Mixer Tools -->
<svg height="16" width="16" version="1.1" id="Capa_1" xmlns="http://www.w3.org/2000/svg" xmlns:xlink="http://www.w3.org/1999/xlink" 
	 viewBox="0 0 43.222 43.222" xml:space="preserve">
<g>
	<path style="fill:#EAF2D4;" d="M31.337,18.588c0.206,0.656,0.309,1.667,0.309,3.031c0,1.301-0.103,2.298-0.309,2.988
		s-0.64,1.035-1.301,1.035s-1.099-0.345-1.312-1.035c-0.214-0.69-0.32-1.686-0.32-2.988c0-1.364,0.106-2.375,0.32-3.031
		c0.213-0.656,0.65-0.984,1.312-0.984C30.697,17.604,31.131,17.932,31.337,18.588z M20.821,17.604c-0.662,0-1.099,0.328-1.312,0.984
		c-0.214,0.656-0.32,1.667-0.32,3.031c0,1.302,0.106,2.298,0.32,2.988c0.213,0.69,0.65,1.035,1.312,1.035
		c0.661,0,1.095-0.345,1.301-1.035s0.309-1.687,0.309-2.988c0-1.364-0.103-2.375-0.309-3.031S21.482,17.604,20.821,17.604z
		 M43.222,21.611c0,11.935-9.675,21.611-21.611,21.611S0,33.546,0,21.611S9.676,0,21.611,0S43.222,9.676,43.222,21.611z
		 M41.364,21.61c0-10.892-8.861-19.753-19.753-19.753c-10.893,0-19.754,8.862-19.754,19.753c0,10.893,8.861,19.754,19.754,19.754
		C32.503,41.364,41.364,32.503,41.364,21.61z M40.364,21.61c0,10.341-8.412,18.754-18.753,18.754S2.857,31.951,2.857,21.61
		S11.271,2.857,21.611,2.857S40.364,11.269,40.364,21.61z M14.224,16.845c0-0.552-0.417-1-0.93-1s-0.933,0.104-0.959,0.229
		c-0.014,0.066-0.032,0.141-0.056,0.224c-0.099,0.338-0.244,0.609-0.436,0.812c-0.28,0.297-0.644,0.495-1.091,0.594
		c-0.169,0.038-0.414,0.07-0.735,0.096c-0.408,0.034-0.738,0.384-0.738,0.803c0,0.419,0.448,0.758,1,0.758h0.664
		c0.552,0,1,0.448,1,1v5.812c0,0.552,0.448,1,1,1h0.281c0.552,0,1-0.448,1-1V16.845z M24.727,21.618c0-1.87-0.29-3.312-0.871-4.328
		c-0.581-1.015-1.593-1.523-3.035-1.523c-1.443,0-2.454,0.507-3.035,1.523s-0.871,2.458-0.871,4.328s0.29,3.309,0.871,4.32
		c0.58,1.011,1.592,1.516,3.035,1.516c1.442,0,2.454-0.505,3.035-1.516C24.436,24.928,24.727,23.488,24.727,21.618z M33.942,21.618
		c0-1.87-0.29-3.312-0.871-4.328c-0.581-1.015-1.593-1.523-3.035-1.523c-1.443,0-2.454,0.507-3.035,1.523s-0.871,2.458-0.871,4.328
		s0.29,3.309,0.871,4.32c0.58,1.011,1.592,1.516,3.035,1.516c1.442,0,2.454-0.505,3.035-1.516
		C33.651,24.928,33.942,23.488,33.942,21.618z"/>
</g>
</svg>